<svg width="180" height="26" viewBox="0 0 180 26" fill="none" xmlns="http://www.w3.org/2000/svg">
<path fill-rule="evenodd" clip-rule="evenodd" d="M0 0H39.4467V25.2556H0V0ZM4.93084 21.7721V3.48353H34.5159V21.7721H22.8051V17.4176H16.6416V21.7721H4.93084ZM107.818 19.3465C105.814 19.3153 104.207 18.8476 102.998 17.9432C101.789 17.0389 101.104 15.8289 100.945 14.3134C100.857 13.565 100.941 12.6856 101.197 11.6753C101.453 10.6586 101.908 9.72314 102.561 8.86872C103.214 8.01425 104.031 7.30326 105.011 6.73571C106.653 5.78148 108.542 5.31996 110.678 5.35114C111.994 5.36986 113.141 5.58506 114.121 5.99668C115.11 6.40207 115.9 6.98831 116.491 7.75543C117.083 8.52254 117.427 9.39573 117.524 10.3749C117.595 11.0672 117.533 11.8561 117.339 12.7417C117.154 13.6211 116.805 14.4631 116.293 15.2677C115.79 16.066 115.136 16.7707 114.333 17.3819C113.53 17.9931 112.58 18.4796 111.486 18.8413C110.4 19.1968 109.177 19.3652 107.818 19.3465ZM112.982 10.3468C112.894 8.78764 112.038 7.97685 110.413 7.91449C109.16 7.87082 108.122 8.22318 107.301 8.97161C106.48 9.71378 105.937 10.8115 105.673 12.2646C105.505 13.1627 105.443 13.8581 105.487 14.3508C105.575 15.935 106.441 16.7489 108.083 16.7925C109.16 16.83 110.087 16.5587 110.864 15.9786C111.64 15.3924 112.201 14.5442 112.545 13.434C112.89 12.3176 113.035 11.2886 112.982 10.3468ZM65.4686 19.1594H69.997L73.3475 5.53825H57.5762L54.2393 19.1594H58.7682L61.4956 8.07352H68.1831L65.4686 19.1594ZM96.1668 5.53825H91.5189L82.872 13.9486L84.951 5.53825H80.4091L77.0586 19.1594H81.7201L90.3669 10.7584L88.2879 19.1594H92.8299L96.1668 5.53825ZM133.106 19.1594H137.609L140.959 5.53825H136.443L135.119 10.9456H128.498L129.836 5.53825H125.294L121.956 19.1594H126.485L127.889 13.4715H134.497L133.106 19.1594ZM157.415 13.3872H150.33L149.523 16.6335H157.905L157.283 19.1594H144.372L147.709 5.53825H160.646L160.024 8.07352H151.628L150.913 10.9456H158.011L157.415 13.3872ZM167.555 19.1594L168.693 14.5379L171.872 14.5473C173.346 14.5473 174.674 14.3696 175.857 14.0141C177.049 13.6586 178.007 13.144 178.731 12.4705C179.455 11.7969 179.87 11.0017 179.976 10.0849C180.125 8.74397 179.583 7.65253 178.347 6.81056C177.12 5.96859 175.434 5.54761 173.288 5.54761L166.363 5.53825L163.026 19.1594H167.555ZM172.044 12.0214L169.316 12.0027L170.282 8.07352L173.447 8.08288C174.004 8.10783 174.449 8.23254 174.785 8.4571C175.129 8.67538 175.336 8.97475 175.407 9.35519C175.531 10.0974 175.288 10.7241 174.679 11.2356C174.07 11.7408 173.191 12.0027 172.044 12.0214Z" fill="#607CE6"/>
</svg>
